<svg width="892" height="746" viewBox="0 0 892 746" fill="none" xmlns="http://www.w3.org/2000/svg">
<g id="chat 1" clip-path="url(#clip0)">
<g id="phone">
<path id="Vector" d="M624.297 172.947H620.298V63.4019C620.298 46.5867 613.619 30.4602 601.728 18.57C589.838 6.67985 573.712 1.85653e-05 556.897 1.13715e-10H324.81C307.995 -3.18259e-05 291.868 6.67975 279.978 18.5699C268.088 30.46 261.408 46.5865 261.408 63.4017V664.376C261.408 681.191 268.088 697.318 279.978 709.208C291.868 721.098 307.994 727.778 324.81 727.778H556.896C573.711 727.778 589.838 721.098 601.728 709.208C613.618 697.318 620.298 681.192 620.298 664.376V250.923H624.297L624.297 172.947Z" fill="#3F3D56"/>
<path id="Vector_2" d="M606.803 63.8443V663.934C606.803 676.492 601.815 688.536 592.935 697.416C584.055 706.295 572.011 711.284 559.454 711.284H326.253C313.696 711.284 301.652 706.295 292.772 697.416C283.892 688.536 278.904 676.492 278.904 663.934V63.8443C278.904 51.2864 283.892 39.2429 292.772 30.3631C301.652 21.4833 313.696 16.4945 326.253 16.4943H354.543C353.153 19.9103 352.624 23.6155 353.002 27.2841C353.38 30.9527 354.654 34.4722 356.711 37.533C358.768 40.5938 361.546 43.1022 364.8 44.8374C368.055 46.5726 371.686 47.4816 375.374 47.4843H508.333C512.021 47.4816 515.652 46.5726 518.907 44.8373C522.161 43.1021 524.939 40.5937 526.996 37.5329C529.053 34.4721 530.327 30.9526 530.705 27.2841C531.083 23.6155 530.554 19.9103 529.163 16.4943H559.454C572.011 16.4945 584.055 21.4833 592.935 30.3631C601.815 39.2429 606.803 51.2864 606.803 63.8443Z" fill="white"/>
</g>
<g id="top-person">
<path id="Vector_3" d="M533.53 321.83C531.98 322.64 530.403 323.407 528.8 324.13C527.34 324.79 525.857 325.41 524.35 325.99C523.8 326.2 523.24 326.41 522.68 326.62C518.253 328.226 513.705 329.48 509.08 330.37C506.79 330.82 504.47 331.173 502.12 331.43C500.18 331.65 498.22 331.807 496.24 331.9C494.83 331.97 493.42 332 492 332C486.377 332.002 480.765 331.477 475.24 330.43C473.8 330.17 472.39 329.86 470.98 329.52C464.16 327.885 457.557 325.448 451.31 322.26C450.75 321.98 450.19 321.68 449.63 321.39C448.8 320.95 447.99 320.49 447.18 320.01C447.57 319.47 447.99 318.94 448.42 318.42C453.099 312.621 458.948 307.873 465.585 304.486C472.222 301.099 479.498 299.148 486.94 298.762C494.381 298.375 501.82 299.56 508.773 302.241C515.725 304.922 522.035 309.038 527.29 314.32C529.114 316.15 530.805 318.109 532.35 320.18C532.76 320.72 533.15 321.27 533.53 321.83Z" fill="#8249BA"/>
<path id="Vector_4" d="M493.996 277.903C518.246 277.903 537.905 258.244 537.905 233.993C537.905 209.742 518.246 190.083 493.996 190.083C469.745 190.083 450.086 209.742 450.086 233.993C450.086 258.244 469.745 277.903 493.996 277.903Z" fill="#2F2E41"/>
<path id="Vector_5" d="M505.675 277.965C521.512 269.307 527.332 249.451 518.675 233.613C510.017 217.776 490.16 211.955 474.323 220.613C458.486 229.27 452.665 249.127 461.323 264.965C469.98 280.802 489.837 286.622 505.675 277.965Z" fill="#A0616A"/>
<path id="Vector_6" d="M524.339 228.733C516.871 233.88 508.007 236.619 498.937 236.583C502.172 238.826 505.855 240.342 509.733 241.025C497.674 243.611 485.21 243.681 473.123 241.23C470.436 240.799 467.843 239.909 465.459 238.598C464.271 237.934 463.235 237.028 462.42 235.938C461.605 234.848 461.029 233.599 460.728 232.271C459.925 227.683 463.501 223.514 467.216 220.704C472.905 216.468 479.465 213.55 486.42 212.16C493.376 210.77 500.553 210.944 507.433 212.668C511.925 213.829 516.426 215.791 519.344 219.399C522.262 223.007 523.126 228.569 520.346 232.284L524.339 228.733Z" fill="#2F2E41"/>
<path id="Vector_7" d="M492 152C472.372 151.997 453.282 158.412 437.638 170.266C421.994 182.121 410.656 198.765 405.35 217.662C400.044 236.559 401.063 256.673 408.25 274.938C415.437 293.202 428.399 308.616 445.16 318.83L445.74 319.17C446.22 319.46 446.7 319.74 447.18 320.01C447.99 320.49 448.8 320.95 449.63 321.39C450.19 321.68 450.75 321.98 451.31 322.26C457.557 325.448 464.16 327.885 470.98 329.52C472.39 329.86 473.8 330.17 475.24 330.43C480.765 331.477 486.377 332.002 492 332C493.42 332 494.83 331.97 496.24 331.9C498.22 331.81 500.18 331.653 502.12 331.43C504.47 331.17 506.79 330.817 509.08 330.37C513.705 329.48 518.253 328.226 522.68 326.62C523.24 326.41 523.8 326.2 524.35 325.99C525.86 325.41 527.343 324.79 528.8 324.13C530.4 323.41 531.977 322.643 533.53 321.83C549.098 313.677 561.965 301.182 570.57 285.86C570.61 285.78 570.66 285.7 570.7 285.62C575.291 277.381 578.548 268.468 580.35 259.21C582.88 246.177 582.497 232.747 579.228 219.88C575.959 207.012 569.886 195.027 561.443 184.782C553 174.537 542.397 166.285 530.391 160.618C518.386 154.95 505.276 152.008 492 152H492ZM569.06 284.45C568.98 284.59 568.91 284.73 568.83 284.86C560.397 299.956 547.71 312.238 532.35 320.18C530.82 320.98 529.263 321.73 527.68 322.43C526.37 323.02 525.03 323.58 523.68 324.1C523.11 324.32 522.53 324.54 521.95 324.74C518.125 326.137 514.205 327.26 510.22 328.1C507.264 328.729 504.276 329.2 501.27 329.51C499.42 329.71 497.54 329.85 495.65 329.92C494.44 329.97 493.22 330 492 330C486.558 330.006 481.127 329.501 475.78 328.49C472.527 327.89 469.312 327.102 466.15 326.13C461.334 324.642 456.653 322.745 452.16 320.46C451.64 320.19 451.12 319.92 450.61 319.64C449.88 319.25 449.14 318.85 448.42 318.42C447.88 318.12 447.34 317.8 446.81 317.48C446.5 317.3 446.19 317.11 445.88 316.92C431.184 307.895 419.462 294.755 412.167 279.128C404.872 263.502 402.325 246.078 404.842 229.017C407.36 211.957 414.83 196.011 426.328 183.157C437.826 170.304 452.844 161.109 469.519 156.714C486.195 152.318 503.794 152.915 520.134 158.43C536.473 163.946 550.834 174.137 561.434 187.74C572.034 201.343 578.408 217.758 579.763 234.95C581.119 252.142 577.397 269.354 569.06 284.45H569.06Z" fill="#3F3D56"/>
<path id="Vector_8" d="M471.76 190.689C471.287 185.721 465.201 182.663 460.442 184.164C455.682 185.664 452.557 190.456 451.613 195.357C451.158 197.42 451.116 199.553 451.487 201.634C451.859 203.714 452.637 205.7 453.778 207.479C456.184 210.941 460.605 213.102 464.728 212.223C469.435 211.22 472.696 206.623 473.63 201.902C474.563 197.18 473.636 192.313 472.711 187.59L471.76 190.689Z" fill="#2F2E41"/>
<path id="Vector_9" d="M538.742 197.786C538.269 192.818 532.183 189.76 527.424 191.261C522.665 192.761 519.54 197.554 518.595 202.454C518.141 204.517 518.098 206.65 518.47 208.731C518.841 210.811 519.62 212.797 520.761 214.576C523.166 218.038 527.587 220.199 531.711 219.32C536.418 218.317 539.679 213.721 540.612 208.999C541.545 204.278 540.619 199.41 539.693 194.687L538.742 197.786Z" fill="#2F2E41"/>
</g>
<g id="bottom-person">
<path id="Vector_10" d="M449.975 622.884C436.043 631.805 419.902 636.67 403.361 636.933C386.82 637.196 370.533 632.847 356.324 624.374C358.824 619.722 361.991 615.46 365.725 611.724C371.486 605.936 378.497 601.545 386.22 598.889C393.943 596.233 402.172 595.382 410.275 596.403C418.378 597.424 426.139 600.288 432.962 604.777C439.785 609.265 445.489 615.258 449.634 622.294C449.744 622.484 449.864 622.684 449.975 622.884Z" fill="#8249BA"/>
<path id="Vector_11" d="M399.239 575.064C423.651 575.064 443.441 555.274 443.441 530.862C443.441 506.45 423.651 486.661 399.239 486.661C374.828 486.661 355.038 506.45 355.038 530.862C355.038 555.274 374.828 575.064 399.239 575.064Z" fill="#2F2E41"/>
<path id="Vector_12" d="M432.129 562.039C440.844 546.097 434.985 526.108 419.043 517.393C403.1 508.678 383.111 514.537 374.396 530.48C365.681 546.422 371.54 566.411 387.483 575.126C403.426 583.841 423.414 577.982 432.129 562.039Z" fill="#FFB8B8"/>
<path id="Vector_13" d="M368.695 525.567C376.212 530.748 385.135 533.506 394.266 533.469C391.009 535.728 387.301 537.253 383.398 537.94C395.537 540.544 408.083 540.615 420.251 538.147C422.956 537.714 425.566 536.817 427.966 535.498C429.162 534.83 430.204 533.917 431.025 532.82C431.845 531.723 432.426 530.465 432.728 529.129C433.537 524.51 429.937 520.313 426.197 517.485C420.47 513.221 413.867 510.283 406.865 508.884C399.864 507.485 392.639 507.66 385.713 509.395C381.191 510.564 376.66 512.539 373.723 516.171C370.786 519.803 369.916 525.402 372.714 529.142L368.695 525.567Z" fill="#2F2E41"/>
<path id="Vector_14" d="M401.944 637.944C380.297 637.937 359.377 630.126 343.023 615.943C326.669 601.759 315.978 582.155 312.909 560.726C309.84 539.297 314.6 517.481 326.316 499.278C338.033 481.074 355.919 467.706 376.694 461.624C397.47 455.542 419.742 457.155 439.425 466.166C459.108 475.177 474.882 490.983 483.853 510.684C492.825 530.384 494.393 552.66 488.27 573.423C482.146 594.186 468.742 612.046 450.515 623.725C436.021 633.019 419.162 637.955 401.944 637.944ZM401.944 459.944C384.537 459.943 367.521 465.103 353.046 474.773C338.572 484.443 327.291 498.188 320.628 514.269C313.966 530.351 312.223 548.047 315.618 565.12C319.014 582.193 327.396 597.875 339.705 610.184C352.013 622.492 367.696 630.875 384.768 634.27C401.841 637.666 419.537 635.922 435.619 629.26C451.701 622.598 465.446 611.316 475.116 596.842C484.786 582.368 489.946 565.351 489.944 547.944C489.918 524.613 480.638 502.245 464.141 485.748C447.643 469.25 425.275 459.971 401.944 459.944Z" fill="#3F3D56"/>
</g>
<g id="bottom-message-box">
<path id="Vector_15" d="M554.644 608.38C568.177 608.38 579.147 607.163 579.147 605.661C579.147 604.159 568.177 602.941 554.644 602.941C541.11 602.941 530.14 604.159 530.14 605.661C530.14 607.163 541.11 608.38 554.644 608.38Z" fill="#F2F2F2"/>
<path id="Vector_16" d="M557.515 599.815C556.668 599.489 555.939 598.914 555.426 598.164C554.914 597.415 554.641 596.527 554.645 595.619V548.586C554.643 546.994 554.01 545.468 552.885 544.342C551.759 543.216 550.233 542.583 548.641 542.581H539.009C535.03 542.577 531.215 540.994 528.401 538.18C525.587 535.366 524.004 531.551 524 527.572V433.009C524.004 429.03 525.587 425.215 528.401 422.401C531.215 419.587 535.03 418.004 539.009 418H878.734C882.714 418.004 886.529 419.587 889.343 422.401C892.157 425.215 893.739 429.03 893.744 433.009V527.572C893.739 531.551 892.157 535.366 889.343 538.18C886.529 540.994 882.714 542.577 878.734 542.581H616.515C615.683 542.582 614.859 542.756 614.098 543.091C613.336 543.426 612.652 543.915 612.089 544.528L562.466 598.662C562.048 599.122 561.537 599.49 560.968 599.743C560.398 599.995 559.783 600.125 559.16 600.126C558.597 600.125 558.039 600.02 557.515 599.815Z" fill="white"/>
<path id="Vector_17" d="M555.067 599.428C554.219 599.102 553.49 598.527 552.978 597.777C552.465 597.028 552.193 596.14 552.196 595.232V548.199C552.195 546.607 551.561 545.081 550.436 543.955C549.31 542.829 547.784 542.196 546.192 542.194H536.56C532.581 542.189 528.766 540.607 525.952 537.793C523.138 534.979 521.556 531.164 521.551 527.185V432.622C521.556 428.643 523.138 424.828 525.952 422.014C528.766 419.2 532.581 417.617 536.56 417.613H876.286C880.265 417.617 884.08 419.2 886.894 422.014C889.708 424.828 891.29 428.643 891.295 432.622V527.185C891.29 531.164 889.708 534.979 886.894 537.793C884.08 540.607 880.265 542.189 876.286 542.194H614.066C613.234 542.195 612.411 542.368 611.649 542.704C610.887 543.039 610.203 543.528 609.64 544.141L560.018 598.274C559.599 598.735 559.088 599.103 558.519 599.356C557.95 599.608 557.334 599.738 556.711 599.739C556.148 599.738 555.591 599.633 555.067 599.428ZM536.56 419.613C533.111 419.617 529.805 420.989 527.366 423.428C524.927 425.866 523.555 429.173 523.551 432.622V527.185C523.555 530.634 524.927 533.94 527.366 536.379C529.805 538.818 533.111 540.19 536.56 540.194H546.192C548.314 540.196 550.349 541.041 551.849 542.541C553.35 544.042 554.194 546.077 554.196 548.199V595.232C554.197 595.736 554.349 596.229 554.633 596.645C554.918 597.061 555.322 597.381 555.792 597.564C556.262 597.747 556.776 597.783 557.267 597.669C557.758 597.555 558.203 597.295 558.544 596.923L608.166 542.79C608.916 541.973 609.828 541.32 610.844 540.873C611.859 540.426 612.957 540.195 614.066 540.194H876.286C879.735 540.19 883.041 538.818 885.48 536.379C887.919 533.94 889.291 530.634 889.295 527.185V432.622C889.291 429.173 887.919 425.866 885.48 423.428C883.041 420.989 879.735 419.617 876.286 419.613H536.56Z" fill="#3F3D56"/>
<path id="Vector_18" d="M563.816 458.327C571.07 458.327 576.95 452.447 576.95 445.193C576.95 437.94 571.07 432.06 563.816 432.06C556.562 432.06 550.682 437.94 550.682 445.193C550.682 452.447 556.562 458.327 563.816 458.327Z" fill="#F6511D"/>
<path id="Vector_19" d="M866.412 517.867H557.332C556.411 517.868 555.5 517.687 554.649 517.336C553.798 516.984 553.025 516.469 552.373 515.818C551.722 515.167 551.205 514.395 550.853 513.544C550.5 512.694 550.319 511.783 550.319 510.862C550.319 509.941 550.5 509.03 550.853 508.18C551.205 507.329 551.722 506.557 552.373 505.906C553.025 505.255 553.798 504.74 554.649 504.388C555.5 504.037 556.411 503.856 557.332 503.857H866.412C868.27 503.857 870.051 504.595 871.365 505.909C872.678 507.223 873.417 509.004 873.417 510.862C873.417 512.72 872.678 514.501 871.365 515.815C870.051 517.129 868.27 517.867 866.412 517.867Z" fill="#E6E6E6"/>
<path id="Vector_20" d="M765.72 488.097H557.332C556.411 488.098 555.5 487.918 554.649 487.566C553.798 487.215 553.025 486.699 552.373 486.048C551.722 485.398 551.205 484.625 550.853 483.775C550.5 482.924 550.319 482.013 550.319 481.092C550.319 480.172 550.5 479.26 550.853 478.41C551.205 477.559 551.722 476.787 552.373 476.136C553.025 475.486 553.798 474.97 554.649 474.618C555.5 474.267 556.411 474.086 557.332 474.088H765.72C767.576 474.09 769.356 474.829 770.668 476.142C771.98 477.456 772.716 479.236 772.716 481.092C772.716 482.949 771.98 484.729 770.668 486.042C769.356 487.356 767.576 488.095 765.72 488.097Z" fill="#E6E6E6"/>
<path id="bottom-message-title" d="M595.211 453.578H605.041V455H593.516V435.094H595.211V453.578ZM613.627 455.273C612.369 455.273 611.23 454.964 610.209 454.344C609.197 453.724 608.409 452.863 607.844 451.76C607.279 450.648 606.996 449.404 606.996 448.027V447.439C606.996 446.018 607.27 444.737 607.816 443.598C608.372 442.458 609.143 441.565 610.127 440.918C611.111 440.262 612.178 439.934 613.326 439.934C615.122 439.934 616.544 440.549 617.592 441.779C618.649 443.001 619.178 444.673 619.178 446.797V447.713H608.623V448.027C608.623 449.704 609.102 451.104 610.059 452.225C611.025 453.337 612.237 453.893 613.695 453.893C614.57 453.893 615.34 453.733 616.006 453.414C616.68 453.095 617.291 452.585 617.838 451.883L618.863 452.662C617.66 454.403 615.915 455.273 613.627 455.273ZM613.326 441.328C612.096 441.328 611.057 441.779 610.209 442.682C609.37 443.584 608.86 444.796 608.678 446.318H617.551V446.141C617.505 444.719 617.1 443.561 616.334 442.668C615.568 441.775 614.566 441.328 613.326 441.328ZM624.906 436.42V440.207H627.969V441.547H624.906V451.404C624.906 452.225 625.052 452.835 625.344 453.236C625.645 453.637 626.141 453.838 626.834 453.838C627.107 453.838 627.549 453.792 628.16 453.701L628.229 455.041C627.8 455.196 627.217 455.273 626.479 455.273C625.357 455.273 624.542 454.95 624.031 454.303C623.521 453.646 623.266 452.685 623.266 451.418V441.547H620.545V440.207H623.266V436.42H624.906ZM631.045 439.975L630.074 439.264C630.895 438.161 631.318 437.003 631.346 435.791V434H632.959V435.381C632.959 437.286 632.321 438.817 631.045 439.975ZM643.664 451.24C643.664 450.429 643.336 449.777 642.68 449.285C642.033 448.793 641.053 448.41 639.74 448.137C638.428 447.854 637.407 447.535 636.678 447.18C635.958 446.815 635.42 446.373 635.064 445.854C634.718 445.334 634.545 444.705 634.545 443.967C634.545 442.8 635.033 441.839 636.008 441.082C636.983 440.316 638.232 439.934 639.754 439.934C641.404 439.934 642.725 440.344 643.719 441.164C644.721 441.975 645.223 443.037 645.223 444.35H643.582C643.582 443.484 643.217 442.764 642.488 442.189C641.768 441.615 640.857 441.328 639.754 441.328C638.678 441.328 637.812 441.57 637.156 442.053C636.509 442.527 636.186 443.146 636.186 443.912C636.186 444.65 636.454 445.225 636.992 445.635C637.539 446.036 638.528 446.405 639.959 446.742C641.399 447.079 642.475 447.439 643.186 447.822C643.906 448.205 644.439 448.665 644.785 449.203C645.132 449.741 645.305 450.393 645.305 451.158C645.305 452.407 644.799 453.405 643.787 454.152C642.785 454.9 641.472 455.273 639.85 455.273C638.127 455.273 636.728 454.859 635.652 454.029C634.586 453.191 634.053 452.133 634.053 450.857H635.693C635.757 451.814 636.158 452.562 636.896 453.1C637.644 453.628 638.628 453.893 639.85 453.893C640.989 453.893 641.91 453.642 642.611 453.141C643.313 452.639 643.664 452.006 643.664 451.24ZM670.557 452.635C669.973 453.464 669.057 454.111 667.809 454.576C666.569 455.041 665.179 455.273 663.639 455.273C662.08 455.273 660.695 454.9 659.482 454.152C658.27 453.405 657.331 452.348 656.666 450.98C656.001 449.613 655.663 448.046 655.654 446.277V443.762C655.654 441 656.352 438.822 657.746 437.227C659.141 435.622 661.014 434.82 663.365 434.82C665.416 434.82 667.066 435.344 668.314 436.393C669.563 437.432 670.306 438.867 670.543 440.699H668.861C668.615 439.241 668.018 438.138 667.07 437.391C666.132 436.634 664.901 436.256 663.379 436.256C661.52 436.256 660.048 436.917 658.963 438.238C657.878 439.56 657.336 441.424 657.336 443.83V446.182C657.336 447.695 657.591 449.035 658.102 450.201C658.621 451.359 659.359 452.257 660.316 452.895C661.283 453.533 662.39 453.852 663.639 453.852C665.088 453.852 666.332 453.624 667.371 453.168C668.046 452.867 668.547 452.516 668.875 452.115V446.975H663.529V445.553H670.557V452.635ZM674.043 447.385C674.043 445.963 674.316 444.682 674.863 443.543C675.419 442.404 676.199 441.52 677.201 440.891C678.213 440.253 679.357 439.934 680.633 439.934C682.602 439.934 684.197 440.626 685.418 442.012C686.639 443.388 687.25 445.215 687.25 447.494V447.836C687.25 449.267 686.972 450.557 686.416 451.705C685.869 452.844 685.094 453.724 684.092 454.344C683.089 454.964 681.945 455.273 680.66 455.273C678.701 455.273 677.105 454.585 675.875 453.209C674.654 451.824 674.043 449.992 674.043 447.713V447.385ZM675.684 447.836C675.684 449.604 676.139 451.058 677.051 452.197C677.971 453.327 679.174 453.893 680.66 453.893C682.137 453.893 683.331 453.327 684.242 452.197C685.163 451.058 685.623 449.559 685.623 447.699V447.385C685.623 446.255 685.413 445.22 684.994 444.281C684.575 443.342 683.987 442.618 683.23 442.107C682.474 441.588 681.608 441.328 680.633 441.328C679.174 441.328 677.985 441.902 677.064 443.051C676.144 444.19 675.684 445.685 675.684 447.535V447.836ZM692.391 449.463H690.873L690.791 435.094H692.486L692.391 449.463ZM690.6 454.043C690.6 453.733 690.7 453.473 690.9 453.264C691.101 453.045 691.374 452.936 691.721 452.936C692.067 452.936 692.34 453.045 692.541 453.264C692.751 453.473 692.855 453.733 692.855 454.043C692.855 454.344 692.751 454.599 692.541 454.809C692.34 455.009 692.067 455.109 691.721 455.109C691.374 455.109 691.101 455.009 690.9 454.809C690.7 454.599 690.6 454.344 690.6 454.043ZM698.707 449.463H697.189L697.107 435.094H698.803L698.707 449.463ZM696.916 454.043C696.916 453.733 697.016 453.473 697.217 453.264C697.417 453.045 697.691 452.936 698.037 452.936C698.383 452.936 698.657 453.045 698.857 453.264C699.067 453.473 699.172 453.733 699.172 454.043C699.172 454.344 699.067 454.599 698.857 454.809C698.657 455.009 698.383 455.109 698.037 455.109C697.691 455.109 697.417 455.009 697.217 454.809C697.016 454.599 696.916 454.344 696.916 454.043Z" fill="#3F3D56"/>
</g>
<g id="top-message-box">
<path id="Vector_21" d="M335.644 288.381C349.177 288.381 360.147 287.163 360.147 285.661C360.147 284.159 349.177 282.941 335.644 282.941C322.11 282.941 311.14 284.159 311.14 285.661C311.14 287.163 322.11 288.381 335.644 288.381Z" fill="#F2F2F2"/>
<path id="Vector_22" d="M334.584 276.126C333.961 276.125 333.345 275.995 332.776 275.743C332.207 275.491 331.696 275.122 331.277 274.662L281.655 220.528C281.092 219.915 280.408 219.426 279.646 219.091C278.884 218.756 278.061 218.582 277.229 218.581H15.0093C11.0299 218.577 7.21487 216.994 4.40105 214.18C1.58723 211.366 0.00446778 207.551 0 203.572V109.009C0.00446514 105.03 1.58723 101.215 4.40105 98.401C7.21487 95.5872 11.0299 94.0045 15.0093 94H354.734C358.714 94.0045 362.529 95.5872 365.343 98.401C368.157 101.215 369.739 105.03 369.744 109.009V203.572C369.739 207.551 368.157 211.366 365.343 214.18C362.529 216.994 358.714 218.577 354.734 218.581H345.103C343.511 218.583 341.985 219.216 340.859 220.342C339.733 221.468 339.1 222.994 339.099 224.586V271.619C339.102 272.527 338.83 273.415 338.317 274.164C337.805 274.914 337.076 275.489 336.228 275.815C335.704 276.02 335.147 276.125 334.584 276.126Z" fill="white"/>
<path id="Vector_23" d="M334.584 276.513C333.961 276.512 333.345 276.382 332.776 276.13C332.207 275.878 331.696 275.509 331.277 275.049L281.655 220.915C281.092 220.302 280.408 219.813 279.646 219.478C278.884 219.143 278.061 218.969 277.229 218.968H15.0093C11.0299 218.964 7.21487 217.381 4.40105 214.567C1.58723 211.753 0.00446778 207.938 0 203.959V109.396C0.00446514 105.417 1.58723 101.602 4.40105 98.7882C7.21487 95.9743 11.0299 94.3916 15.0093 94.3871H354.734C358.714 94.3916 362.529 95.9743 365.343 98.7882C368.157 101.602 369.739 105.417 369.744 109.396V203.959C369.739 207.938 368.157 211.753 365.343 214.567C362.529 217.381 358.714 218.964 354.734 218.968H345.103C343.511 218.97 341.985 219.603 340.859 220.729C339.733 221.855 339.1 223.381 339.099 224.973V272.006C339.102 272.914 338.83 273.802 338.317 274.551C337.805 275.301 337.076 275.877 336.228 276.202C335.704 276.407 335.147 276.513 334.584 276.513ZM15.0093 96.3871C11.5602 96.391 8.25349 97.7629 5.81462 100.202C3.37575 102.641 2.00389 105.947 2 109.396V203.959C2.0039 207.408 3.37577 210.715 5.81464 213.154C8.25351 215.592 11.5602 216.964 15.0093 216.968H277.229C278.338 216.969 279.436 217.201 280.451 217.647C281.467 218.094 282.379 218.747 283.129 219.564L332.751 273.697C333.092 274.069 333.537 274.329 334.028 274.443C334.519 274.558 335.033 274.521 335.503 274.338C335.973 274.156 336.377 273.835 336.661 273.419C336.946 273.003 337.098 272.51 337.099 272.006V224.973C337.101 222.851 337.945 220.816 339.446 219.315C340.946 217.815 342.981 216.971 345.103 216.968H354.734C358.184 216.964 361.49 215.592 363.929 213.154C366.368 210.715 367.74 207.408 367.744 203.959V109.396C367.74 105.947 366.368 102.641 363.929 100.202C361.49 97.7629 358.184 96.391 354.734 96.3871H15.0093Z" fill="#3F3D56"/>
<path id="Vector_24" d="M36.816 136.101C44.0696 136.101 49.9497 130.221 49.9497 122.968C49.9497 115.714 44.0696 109.834 36.816 109.834C29.5625 109.834 23.6823 115.714 23.6823 122.968C23.6823 130.221 29.5625 136.101 36.816 136.101Z" fill="#F6511D"/>
<path id="Vector_25" d="M339.412 195.641H30.3319C29.4114 195.642 28.4996 195.462 27.6488 195.11C26.798 194.759 26.0248 194.243 25.3735 193.592C24.7222 192.942 24.2054 192.169 23.8529 191.319C23.5004 190.468 23.3189 189.557 23.3189 188.636C23.3189 187.716 23.5004 186.804 23.8529 185.954C24.2054 185.103 24.7222 184.331 25.3735 183.68C26.0248 183.03 26.798 182.514 27.6488 182.162C28.4996 181.811 29.4114 181.63 30.3319 181.632H339.412C341.268 181.634 343.048 182.373 344.359 183.686C345.671 185 346.408 186.78 346.408 188.636C346.408 190.493 345.671 192.273 344.359 193.586C343.048 194.9 341.268 195.639 339.412 195.641Z" fill="#E6E6E6"/>
<path id="Vector_26" d="M238.72 165.871H30.3319C29.4114 165.872 28.4996 165.692 27.6488 165.34C26.798 164.989 26.0248 164.473 25.3735 163.822C24.7222 163.172 24.2054 162.399 23.8529 161.549C23.5004 160.699 23.3189 159.787 23.3189 158.866C23.3189 157.946 23.5004 157.034 23.8529 156.184C24.2054 155.334 24.7222 154.561 25.3735 153.91C26.0248 153.26 26.798 152.744 27.6488 152.393C28.4996 152.041 29.4114 151.861 30.3319 151.862H238.72C240.578 151.862 242.359 152.6 243.673 153.913C244.987 155.227 245.725 157.009 245.725 158.866C245.725 160.724 244.987 162.506 243.673 163.82C242.359 165.133 240.578 165.871 238.72 165.871Z" fill="#E6E6E6"/>
<path id="top-message-title" d="M83.0234 114.304H76.2012V132.774H74.5195V114.304H67.7109V112.868H83.0234V114.304ZM91.6641 119.376C91.3177 119.312 90.9486 119.28 90.5566 119.28C89.5358 119.28 88.6699 119.567 87.959 120.141C87.2572 120.707 86.7559 121.531 86.4551 122.616V132.774H84.8281V117.981H86.4277L86.4551 120.333C87.321 118.583 88.7109 117.708 90.625 117.708C91.0807 117.708 91.4408 117.767 91.7051 117.886L91.6641 119.376ZM103.053 132.774C102.889 132.309 102.784 131.621 102.738 130.71C102.164 131.457 101.43 132.036 100.537 132.446C99.653 132.847 98.7142 133.048 97.7207 133.048C96.2988 133.048 95.1458 132.651 94.2617 131.858C93.3867 131.065 92.9492 130.063 92.9492 128.85C92.9492 127.41 93.5462 126.271 94.7402 125.432C95.9434 124.594 97.6159 124.175 99.7578 124.175H102.725V122.493C102.725 121.436 102.396 120.606 101.74 120.005C101.093 119.394 100.145 119.089 98.8965 119.089C97.7572 119.089 96.8138 119.38 96.0664 119.964C95.319 120.547 94.9453 121.249 94.9453 122.069L93.3047 122.055C93.3047 120.88 93.8516 119.863 94.9453 119.007C96.0391 118.141 97.3835 117.708 98.9785 117.708C100.628 117.708 101.927 118.123 102.875 118.952C103.832 119.772 104.324 120.921 104.352 122.397V129.397C104.352 130.828 104.502 131.899 104.803 132.61V132.774H103.053ZM97.9121 131.598C99.0059 131.598 99.9811 131.334 100.838 130.805C101.704 130.277 102.333 129.57 102.725 128.686V125.432H99.7988C98.1673 125.451 96.8913 125.751 95.9707 126.335C95.0501 126.909 94.5898 127.702 94.5898 128.714C94.5898 129.543 94.8952 130.231 95.5059 130.778C96.1257 131.325 96.9277 131.598 97.9121 131.598ZM110.559 132.774H108.918V117.981H110.559V132.774ZM108.631 113.702C108.631 113.392 108.731 113.132 108.932 112.923C109.132 112.704 109.406 112.595 109.752 112.595C110.098 112.595 110.372 112.704 110.572 112.923C110.782 113.132 110.887 113.392 110.887 113.702C110.887 114.012 110.782 114.272 110.572 114.481C110.372 114.691 110.098 114.796 109.752 114.796C109.406 114.796 109.132 114.691 108.932 114.481C108.731 114.272 108.631 114.012 108.631 113.702ZM116.574 117.981L116.629 120.511C117.185 119.599 117.878 118.906 118.707 118.432C119.536 117.949 120.452 117.708 121.455 117.708C123.041 117.708 124.221 118.154 124.996 119.048C125.771 119.941 126.163 121.281 126.172 123.067V132.774H124.545V123.054C124.536 121.732 124.253 120.748 123.697 120.1C123.15 119.453 122.271 119.13 121.059 119.13C120.047 119.13 119.149 119.449 118.365 120.087C117.59 120.716 117.016 121.568 116.643 122.643V132.774H115.016V117.981H116.574ZM132.242 132.774H130.602V117.981H132.242V132.774ZM130.314 113.702C130.314 113.392 130.415 113.132 130.615 112.923C130.816 112.704 131.089 112.595 131.436 112.595C131.782 112.595 132.055 112.704 132.256 112.923C132.465 113.132 132.57 113.392 132.57 113.702C132.57 114.012 132.465 114.272 132.256 114.481C132.055 114.691 131.782 114.796 131.436 114.796C131.089 114.796 130.816 114.691 130.615 114.481C130.415 114.272 130.314 114.012 130.314 113.702ZM138.258 117.981L138.312 120.511C138.868 119.599 139.561 118.906 140.391 118.432C141.22 117.949 142.136 117.708 143.139 117.708C144.725 117.708 145.905 118.154 146.68 119.048C147.454 119.941 147.846 121.281 147.855 123.067V132.774H146.229V123.054C146.219 121.732 145.937 120.748 145.381 120.1C144.834 119.453 143.954 119.13 142.742 119.13C141.73 119.13 140.833 119.449 140.049 120.087C139.274 120.716 138.7 121.568 138.326 122.643V132.774H136.699V117.981H138.258ZM151.438 125.241C151.438 122.926 151.948 121.094 152.969 119.745C153.999 118.387 155.393 117.708 157.152 117.708C159.167 117.708 160.698 118.51 161.746 120.114L161.828 117.981H163.359V132.473C163.359 134.378 162.826 135.887 161.76 136.999C160.693 138.111 159.249 138.667 157.426 138.667C156.396 138.667 155.411 138.434 154.473 137.97C153.543 137.514 152.809 136.903 152.271 136.138L153.188 135.153C154.345 136.575 155.721 137.286 157.316 137.286C158.684 137.286 159.75 136.88 160.516 136.069C161.281 135.267 161.678 134.151 161.705 132.72V130.86C160.657 132.319 159.13 133.048 157.125 133.048C155.411 133.048 154.035 132.364 152.996 130.997C151.957 129.63 151.438 127.784 151.438 125.46V125.241ZM153.092 125.528C153.092 127.415 153.47 128.905 154.227 129.999C154.983 131.083 156.049 131.626 157.426 131.626C159.44 131.626 160.867 130.723 161.705 128.919V122.042C161.322 121.094 160.771 120.374 160.051 119.882C159.331 119.38 158.465 119.13 157.453 119.13C156.077 119.13 155.006 119.672 154.24 120.757C153.475 121.832 153.092 123.423 153.092 125.528ZM187.777 114.304H180.955V132.774H179.273V114.304H172.465V112.868H187.777V114.304ZM192.453 132.774H190.812V117.981H192.453V132.774ZM190.525 113.702C190.525 113.392 190.626 113.132 190.826 112.923C191.027 112.704 191.3 112.595 191.646 112.595C191.993 112.595 192.266 112.704 192.467 112.923C192.676 113.132 192.781 113.392 192.781 113.702C192.781 114.012 192.676 114.272 192.467 114.481C192.266 114.691 191.993 114.796 191.646 114.796C191.3 114.796 191.027 114.691 190.826 114.481C190.626 114.272 190.525 114.012 190.525 113.702ZM198.4 117.981L198.455 120.388C199.002 119.494 199.686 118.824 200.506 118.378C201.326 117.931 202.238 117.708 203.24 117.708C205.574 117.708 207.055 118.665 207.684 120.579C208.212 119.658 208.919 118.952 209.803 118.46C210.687 117.958 211.662 117.708 212.729 117.708C215.9 117.708 217.518 119.44 217.582 122.903V132.774H215.941V123.026C215.932 121.705 215.645 120.725 215.08 120.087C214.524 119.449 213.613 119.13 212.346 119.13C211.17 119.148 210.176 119.531 209.365 120.278C208.554 121.016 208.103 121.919 208.012 122.985V132.774H206.371V122.903C206.362 121.636 206.061 120.693 205.469 120.073C204.885 119.444 203.983 119.13 202.762 119.13C201.732 119.13 200.848 119.426 200.109 120.018C199.371 120.602 198.824 121.472 198.469 122.63V132.774H196.828V117.981H198.4ZM227.467 133.048C226.209 133.048 225.07 132.738 224.049 132.118C223.037 131.498 222.249 130.637 221.684 129.534C221.118 128.422 220.836 127.178 220.836 125.802V125.214C220.836 123.792 221.109 122.511 221.656 121.372C222.212 120.233 222.982 119.339 223.967 118.692C224.951 118.036 226.018 117.708 227.166 117.708C228.962 117.708 230.383 118.323 231.432 119.554C232.489 120.775 233.018 122.447 233.018 124.571V125.487H222.463V125.802C222.463 127.479 222.941 128.878 223.898 129.999C224.865 131.111 226.077 131.667 227.535 131.667C228.41 131.667 229.18 131.507 229.846 131.188C230.52 130.869 231.131 130.359 231.678 129.657L232.703 130.436C231.5 132.177 229.755 133.048 227.467 133.048ZM227.166 119.102C225.936 119.102 224.896 119.554 224.049 120.456C223.21 121.358 222.7 122.57 222.518 124.093H231.391V123.915C231.345 122.493 230.939 121.335 230.174 120.442C229.408 119.549 228.406 119.102 227.166 119.102ZM237.953 127.237H236.436L236.354 112.868H238.049L237.953 127.237ZM236.162 131.817C236.162 131.507 236.262 131.248 236.463 131.038C236.663 130.819 236.937 130.71 237.283 130.71C237.63 130.71 237.903 130.819 238.104 131.038C238.313 131.248 238.418 131.507 238.418 131.817C238.418 132.118 238.313 132.373 238.104 132.583C237.903 132.783 237.63 132.884 237.283 132.884C236.937 132.884 236.663 132.783 236.463 132.583C236.262 132.373 236.162 132.118 236.162 131.817Z" fill="#3F3D56"/>
</g>
</g>
<defs>
<clipPath id="clip0">
<rect width="891.295" height="745.194" fill="white"/>
</clipPath>
</defs>
</svg>
