<svg width="100" height="100" viewBox="0 0 100 100" fill="none" xmlns="http://www.w3.org/2000/svg">
<path d="M98.3333 90H88.3333V54.81C88.8808 54.9306 89.4394 54.9944 90 55C94.6 54.9946 98.3279 51.2667 98.3333 46.6667C98.3333 46.545 98.32 46.4238 98.2933 46.305L94.96 31.305C94.7904 30.5425 94.1144 30.0002 93.3333 30H88.3333V25C88.3333 24.0796 87.5871 23.3333 86.6667 23.3333H73.3333V20H76.6667C77.5871 20 78.3333 19.2537 78.3333 18.3333V1.66667C78.3333 0.74625 77.5871 0 76.6667 0H23.3333C22.4129 0 21.6667 0.74625 21.6667 1.66667V18.3333C21.6667 19.2537 22.4129 20 23.3333 20H26.6667V23.3333H13.3333C12.4129 23.3333 11.6667 24.0796 11.6667 25V30H6.66667C5.88562 30.0002 5.20958 30.5425 5.04 31.305L1.70667 46.305C1.68 46.4238 1.66667 46.545 1.66667 46.6667C1.67208 51.2667 5.4 54.9946 10 55C10.5606 54.9944 11.1192 54.9306 11.6667 54.81V90H1.66667C0.74625 90 0 90.7462 0 91.6667V98.3333C0 99.2537 0.74625 100 1.66667 100H98.3333C99.2537 100 100 99.2537 100 98.3333V91.6667C100 90.7462 99.2537 90 98.3333 90ZM55 46.6667C55.004 47.0908 54.9477 47.5133 54.8333 47.9217C54.1294 50.5919 51.3942 52.1858 48.724 51.4819C46.9683 51.0192 45.6017 49.641 45.1533 47.8817C45.0456 47.4858 44.9942 47.0769 45 46.6667V33.3333H55V46.6667ZM41.6667 46.6667C41.6706 47.0908 41.6144 47.5133 41.5 47.9217C40.796 50.5919 38.0608 52.1858 35.3906 51.4819C33.635 51.0192 32.2683 49.641 31.82 47.8817C31.7196 47.514 31.6679 47.1346 31.6667 46.7533L33.1667 33.3333H41.6667V46.6667ZM28.3333 46.6667C28.3373 47.0908 28.281 47.5133 28.1667 47.9217C27.4627 50.5919 24.7275 52.1858 22.0573 51.4819C20.3017 51.0192 18.935 49.641 18.4867 47.8817C18.3862 47.514 18.3346 47.1346 18.3333 46.7533L19.8333 33.3333H29.8133L28.3517 46.4833C28.3421 46.544 28.336 46.6052 28.3333 46.6667ZM58.3333 33.3333H66.8333L68.3333 46.7533C68.329 47.1479 68.2729 47.54 68.1667 47.92C67.4627 50.5902 64.7275 52.1842 62.0573 51.4802C60.3017 51.0175 58.935 49.6394 58.4867 47.88C58.3792 47.4848 58.3275 47.0762 58.3333 46.6667V33.3333ZM71.6567 46.4833L70.195 33.3333H80.175L81.675 46.7533C81.6706 47.1479 81.6146 47.54 81.5083 47.92C80.8044 50.5902 78.0692 52.1842 75.399 51.4802C73.6433 51.0175 72.2767 49.6394 71.8283 47.88C71.7181 47.485 71.6635 47.0767 71.6667 46.6667C71.6667 46.6054 71.6633 46.5442 71.6567 46.4833ZM95 46.8333C94.91 49.5294 92.6977 51.6681 90 51.6667C89.1212 51.6665 88.2583 51.4323 87.5 50.9883C86.3331 50.3096 85.4888 49.19 85.1567 47.8817C85.0479 47.486 84.9952 47.0771 85 46.6667C85 46.6054 84.9967 46.5442 84.99 46.4833L83.5283 33.3333H92L95 46.8333ZM25 3.33333H75V16.6667H25V3.33333ZM30 20H70V23.3333H30V20ZM15 26.6667H85V30H15V26.6667ZM5 46.8333L8 33.3333H16.4683L15.0067 46.4833C15.001 46.5444 14.999 46.6054 15 46.6667C15.0033 47.0896 14.9471 47.511 14.8333 47.9183C14.4973 49.2125 13.6569 50.3181 12.5 50.9883C11.7417 51.4323 10.8787 51.6665 10 51.6667C7.30229 51.6681 5.09 49.5294 5 46.8333ZM15 53.2733C15.6302 52.8081 16.1912 52.256 16.6667 51.6333C19.385 55.3152 24.5733 56.0965 28.2552 53.3781C28.9206 52.8869 29.5087 52.2987 30 51.6333C32.7183 55.3152 37.9067 56.0965 41.5885 53.3781C42.254 52.8869 42.8421 52.2987 43.3333 51.6333C46.0517 55.3152 51.24 56.0965 54.9219 53.3781C55.5873 52.8869 56.1754 52.2987 56.6667 51.6333C59.385 55.3152 64.5733 56.0965 68.2552 53.3781C68.9206 52.8869 69.5088 52.2987 70 51.6333C72.7198 55.3152 77.9094 56.0952 81.5912 53.3754C82.2554 52.8848 82.8427 52.2975 83.3333 51.6333C83.8085 52.2546 84.3698 52.8052 85 53.2683V90H78.3333V65C78.3333 64.0796 77.5871 63.3333 76.6667 63.3333H60C59.0796 63.3333 58.3333 64.0796 58.3333 65V90H15V53.2733ZM75 90H61.6667V66.6667H75V90ZM96.6667 96.6667H3.33333V93.3333H96.6667V96.6667Z" fill="url(#paint0_linear)"/>
<path d="M50 63.3333H23.3333C22.4129 63.3333 21.6667 64.0796 21.6667 65V81.6667C21.6667 82.5871 22.4129 83.3333 23.3333 83.3333H50C50.9204 83.3333 51.6667 82.5871 51.6667 81.6667V65C51.6667 64.0796 50.9204 63.3333 50 63.3333ZM48.3333 80H25V66.6667H48.3333V80Z" fill="url(#paint1_linear)"/>
<defs>
<linearGradient id="paint0_linear" x1="-2.81667" y1="50" x2="121.767" y2="50" gradientUnits="userSpaceOnUse">
<stop stop-color="white"/>
<stop offset="1" stop-color="white"/>
</linearGradient>
<linearGradient id="paint1_linear" x1="-2.81668" y1="73.3333" x2="121.767" y2="73.3333" gradientUnits="userSpaceOnUse">
<stop stop-color="white"/>
<stop offset="0.979167" stop-color="white"/>
</linearGradient>
</defs>
</svg>
