<svg width="100" height="100" viewBox="0 0 512 512" fill="none" xmlns="http://www.w3.org/2000/svg">
<g clip-path="url(#clip0)">
<path d="M448 512C412.715 512 384 483.285 384 448C384 412.715 412.715 384 448 384C483.285 384 512 412.715 512 448C512 483.285 483.285 512 448 512ZM448 416C430.357 416 416 430.357 416 448C416 465.643 430.357 480 448 480C465.643 480 480 465.643 480 448C480 430.357 465.643 416 448 416Z" fill="white"/>
<path d="M250.667 496C241.835 496 234.667 488.832 234.667 480V458.667C234.667 443.968 246.635 432 261.333 432H394.667C403.499 432 410.667 439.168 410.667 448C410.667 456.832 403.499 464 394.667 464H266.667V480C266.667 488.832 259.499 496 250.667 496Z" fill="white"/>
<path d="M293.333 496C284.501 496 277.333 488.832 277.333 480V448C277.333 439.168 284.501 432 293.333 432C302.165 432 309.333 439.168 309.333 448V480C309.333 488.832 302.165 496 293.333 496Z" fill="white"/>
<path d="M176 426.667H48C21.5253 426.667 0 405.12 0 378.667V197.333C0 170.88 21.5253 149.333 48 149.333H293.333C319.808 149.333 341.333 170.88 341.333 197.333V368C341.333 376.832 334.165 384 325.333 384C316.501 384 309.333 376.832 309.333 368V197.333C309.333 188.523 302.165 181.333 293.333 181.333H48C39.168 181.333 32 188.523 32 197.333V378.667C32 387.477 39.168 394.667 48 394.667H176C184.832 394.667 192 401.835 192 410.667C192 419.499 184.832 426.667 176 426.667Z" fill="white"/>
<path d="M261.333 181.333C252.501 181.333 245.333 174.165 245.333 165.333V106.667C245.333 65.4933 211.84 32 170.667 32C129.493 32 96 65.4933 96 106.667V165.333C96 174.165 88.832 181.333 80 181.333C71.168 181.333 64 174.165 64 165.333V106.667C64 47.8507 111.851 0 170.667 0C229.483 0 277.333 47.8507 277.333 106.667V165.333C277.333 174.165 270.165 181.333 261.333 181.333Z" fill="white"/>
</g>
<defs>
<clipPath id="clip0">
<rect width="512" height="512" fill="white"/>
</clipPath>
</defs>
</svg>
